<?xml version="1.0" standalone="no"?>
<!DOCTYPE svg PUBLIC "-//W3C//DTD SVG 20010904//EN"
 "http://www.w3.org/TR/2001/REC-SVG-20010904/DTD/svg10.dtd">
<svg version="1.0" xmlns="http://www.w3.org/2000/svg"
 width="181.000000pt" height="214.000000pt" viewBox="0 0 181.000000 214.000000"
 preserveAspectRatio="xMidYMid meet">
<metadata>
Created by potrace 1.16, written by Peter Selinger 2001-2019
</metadata>
<g transform="translate(0.000000,214.000000) scale(0.100000,-0.100000)"
fill="#000000" stroke="none">
<path d="M0 2021 l0 -119 67 -62 c51 -47 127 -97 298 -195 l230 -132 5 -671
c3 -428 9 -674 15 -680 22 -19 275 -162 287 -162 7 0 77 37 155 82 l143 81 0
672 0 671 233 134 c163 94 254 153 305 199 l72 64 0 119 c0 90 -3 118 -13 118
-7 0 -17 -4 -23 -9 -5 -5 -99 -61 -209 -124 -110 -63 -240 -138 -290 -167 -49
-29 -129 -75 -177 -102 -47 -27 -92 -56 -100 -65 -10 -13 -14 -136 -16 -644
l-3 -628 -36 -22 c-36 -22 -36 -23 -72 -3 l-36 19 -6 625 c-3 344 -8 634 -13
645 -4 11 -37 36 -74 56 -37 20 -215 123 -396 228 -181 105 -333 191 -338 191
-4 0 -8 -53 -8 -119z"/>
<path d="M0 1096 l0 -584 168 -96 c92 -52 181 -105 197 -116 17 -11 35 -20 42
-20 6 0 28 26 47 59 35 56 36 62 36 154 0 108 5 100 -103 161 l-72 41 -3 283
-2 282 57 -30 c32 -16 73 -33 91 -36 l32 -6 0 100 c0 114 -1 116 -90 171 -99
61 -380 221 -390 221 -7 0 -10 -194 -10 -584z"/>
<path d="M1610 1590 c-96 -48 -192 -103 -213 -122 l-39 -33 26 -345 c14 -190
26 -363 26 -385 -1 -38 -3 -42 -65 -80 l-65 -40 0 -99 c0 -92 2 -102 31 -153
37 -64 30 -64 172 16 56 32 131 73 166 92 l64 33 -7 121 c-6 114 -9 167 -36
576 -7 96 -11 183 -9 193 2 10 35 34 74 55 l70 37 3 112 c2 86 0 112 -10 111
-7 0 -92 -40 -188 -89z"/>
</g>
</svg>
